<?xml version="1.0" encoding="UTF-8" standalone="no"?>
<!-- Created with Inkscape (http://www.inkscape.org/) -->

<svg
   width="305"
   height="305"
   viewBox="0 0 80.697915 80.697919"
   version="1.1"
   id="svg3659"
   inkscape:version="1.1 (c4e8f9e, 2021-05-24)"
   sodipodi:docname="haxe.svg"
   xmlns:inkscape="http://www.inkscape.org/namespaces/inkscape"
   xmlns:sodipodi="http://sodipodi.sourceforge.net/DTD/sodipodi-0.dtd"
   xmlns="http://www.w3.org/2000/svg"
   xmlns:svg="http://www.w3.org/2000/svg">
  <sodipodi:namedview
     id="namedview3661"
     pagecolor="#505050"
     bordercolor="#ffffff"
     borderopacity="1"
     inkscape:pageshadow="0"
     inkscape:pageopacity="0"
     inkscape:pagecheckerboard="1"
     inkscape:document-units="mm"
     showgrid="false"
     units="px"
     inkscape:zoom="2.2065574"
     inkscape:cx="140.71694"
     inkscape:cy="178.3321"
     inkscape:window-width="1440"
     inkscape:window-height="757"
     inkscape:window-x="0"
     inkscape:window-y="25"
     inkscape:window-maximized="1"
     inkscape:current-layer="layer1" />
  <defs
     id="defs3656" />
  <g
     inkscape:label="Layer 1"
     inkscape:groupmode="layer"
     id="layer1">
    <rect
       style="fill:#ffffff;fill-opacity:1;stroke:#ff8000;stroke-width:4.51655;stroke-opacity:1"
       id="rect11246"
       width="76.181374"
       height="76.181374"
       x="2.258275"
       y="2.258275" />
    <g
       transform="matrix(0.06352272,0,0,0.06352272,9.677464,-53.460556)"
       id="g4029">
      <path
         d="m 482.8347,1207.9542 -200.813,-18.3507 -157.6319,-71.2595 h 179.2184 l 179.2266,89.5228"
         fill="#fbc712"
         id="path4003" />
      <path
         d="m 482.8347,1207.9542 212.8266,-24.6514 145.6346,-64.9589 H 662.0552 l -179.2204,89.5228"
         fill="#fbc712"
         id="path4005" />
      <path
         d="m 482.8347,1745.6257 179.2204,21.3342 179.2408,68.2698 H 662.0552 l -179.2204,-89.7058"
         fill="#f6871f"
         id="path4007" />
      <path
         d="m 482.8347,1745.6257 -179.2266,19.2639 -179.2184,70.3401 h 179.2184 l 179.2266,-89.7058"
         fill="#f15e22"
         id="path4009" />
      <path
         d="m 213.998,1476.7889 -26.4513,210.4268 -63.1569,148.014 v -179.2122 l 89.6082,-179.3303"
         fill="#fcee23"
         id="path4011" />
      <path
         d="M 213.998,1476.7889 193.8473,1284.0785 124.3898,1118.344 v 179.2205 l 89.6082,179.1228"
         fill="#fcee23"
         id="path4013" />
      <path
         d="m 751.6715,1476.7889 25.8615,-194.8114 63.7487,-163.6335 v 179.2205 l -89.6102,179.1228"
         fill="#f04923"
         id="path4015" />
      <path
         d="m 751.6715,1476.7889 17.4824,197.8254 72.1279,160.6154 v -179.2122 l -89.6102,-179.3303"
         fill="#f04923"
         id="path4017" />
      <path
         d="m 124.3898,1118.344 358.4449,89.6102 v 268.6842 H 213.998 l -89.6082,-358.1113"
         fill="#f8b218"
         id="path4019" />
      <path
         d="m 124.3898,1835.2297 89.6082,-358.4408 268.8368,-0.1505 v 268.7839 l -358.4449,89.4414"
         fill="#f89d1c"
         id="path4021" />
      <path
         d="m 841.296,1118.344 -89.6245,358.4327 -268.8368,-0.1383 v -268.6985 l 358.4612,-89.4128"
         fill="#f37321"
         id="path4023" />
      <path
         d="m 841.296,1835.2297 -358.4612,-89.604 v -268.9873 l 268.8368,0.1505 89.6245,358.0748"
         fill="#f15e22"
         id="path4025" />
      <path
         d="M 482.8347,1207.9542 213.998,1476.7889 482.8348,1745.6257 751.6716,1476.7767 482.8348,1207.8668"
         fill="#f6871f"
         id="path4027" />
    </g>
  </g>
</svg>
